<svg xmlns="http://www.w3.org/2000/svg" width="205.997" height="80" viewBox="0 0 205.997 80">
  <g data-name="Footer Logo" transform="translate(-40 -170)">
    <path data-name="Path 2830" d="M11.54,0C25.373,7.763,24.9,22.982,23.988,39.152H43.322a.283.283,0,0,0,.213-.085.349.349,0,0,0,.093-.273v-5.04c0-1.093,0-2.016-.008-2.76s-.008-1.359-.008-1.853-.017-.923-.035-1.281-.025-.692-.051-1.008a5.394,5.394,0,0,0-.239-1.452,1.882,1.882,0,0,0-.667-.94,3.1,3.1,0,0,0-1.3-.529,5.634,5.634,0,0,0-.88-.12c-.376-.025-.743-.035-1.119-.035a1.826,1.826,0,0,1-.649-.095.379.379,0,0,1-.223-.367.369.369,0,0,1,.273-.367,2.2,2.2,0,0,1,.8-.093q1.05,0,2.127.025c.717.008,1.419.035,2.084.051s1.282.035,1.82.051,1,.025,1.35.025c.316,0,.735-.008,1.247-.025s1.086-.035,1.692-.051,1.231-.043,1.846-.051,1.171-.025,1.675-.025a2.488,2.488,0,0,1,.812.093.4.4,0,0,1,.035.733,1.99,1.99,0,0,1-.692.095,5.979,5.979,0,0,0-.667.035c-.239.025-.512.068-.82.12a1.954,1.954,0,0,0-1.427.88,4.454,4.454,0,0,0-.469,2.041c-.017.316-.035.657-.051,1.008s-.017.785-.025,1.281-.017,1.119-.017,1.853-.008,1.665-.008,2.76V46.739c0,1.58,0,3.059.008,4.451s.035,2.631.068,3.742.093,2.033.18,2.776a6.3,6.3,0,0,0,.248,1.307,2.23,2.23,0,0,0,.581.973,2.137,2.137,0,0,0,1.171.487c.248.035.521.068.829.1l.923.077c.316.017.607.025.863.025a1.328,1.328,0,0,1,.624.111.33.33,0,0,1,.2.3.413.413,0,0,1-.281.393,1.915,1.915,0,0,1-.743.12c-1.119,0-2.2-.017-3.23-.043s-1.974-.043-2.794-.068-1.487-.043-1.974-.043c-.3,0-.709.008-1.214.025s-1.068.035-1.683.051l-1.828.051c-.615.017-1.171.025-1.683.025a2.1,2.1,0,0,1-.8-.12.416.416,0,0,1-.273-.393.328.328,0,0,1,.18-.3,1.317,1.317,0,0,1,.641-.111,9.309,9.309,0,0,0,1.043-.06c.308-.043.572-.093.8-.145a1.255,1.255,0,0,0,.795-.5A2.653,2.653,0,0,0,43.131,59a10.651,10.651,0,0,0,.248-1.349q.128-1.09.18-2.743c.043-1.1.06-2.341.068-3.726s.008-2.871.008-4.451V42.224a.292.292,0,0,0-.093-.231.316.316,0,0,0-.213-.077h-19.5C23.066,55.461,22.541,69.41,30.274,80,2.694,60.349,26.959,19.983,11.54,0Z" transform="translate(30.684 170)" fill="#fff" fill-rule="evenodd"/>
    <path data-name="Path 2831" d="M0,1.74C12.789,15.935-.308,48.231,8.079,68.509-5.509,52.779,7.036,18.651,0,1.74Z" transform="translate(40 168.492)" fill="#9b804e" fill-rule="evenodd"/>
    <path data-name="Path 2832" d="M20.087-39.549H6.474v.706a12.305,12.305,0,0,0,.913,5.1,6.66,6.66,0,0,0,2.407,2.947,5.831,5.831,0,0,0,3.2.955,7.89,7.89,0,0,0,3.382-.768,5.64,5.64,0,0,0,2.594-2.552l.623.332A6.974,6.974,0,0,1,16.5-29.588a9.189,9.189,0,0,1-4.129.955,8.994,8.994,0,0,1-4.4-1.141A8.615,8.615,0,0,1,4.607-33.2,11.354,11.354,0,0,1,3.32-38.843a12.484,12.484,0,0,1,1.038-5.146A8.986,8.986,0,0,1,7.325-47.7a7.774,7.774,0,0,1,4.669-1.39,7.469,7.469,0,0,1,4.482,1.287,7.974,7.974,0,0,1,2.7,3.445A12.239,12.239,0,0,1,20.087-39.549Zm-8.051-8.715a4.266,4.266,0,0,0-3.86,2.158,12.209,12.209,0,0,0-1.619,5.354H16.891a12.37,12.37,0,0,0-1.245-5.457A3.81,3.81,0,0,0,12.035-48.264ZM39.468-49.3a3.782,3.782,0,0,1,1.785.436,1.37,1.37,0,0,1,.83,1.266,1.532,1.532,0,0,1-.54,1.266,1.765,1.765,0,0,1-1.121.436,1.973,1.973,0,0,1-1.058-.27q-.436-.27-.955-.54a3.254,3.254,0,0,0-1.473-.27,2.343,2.343,0,0,0-1.951,1.432,11.882,11.882,0,0,0-1.266,3.714,25.41,25.41,0,0,0-.436,4.773q0,2.615.1,4.15a6.67,6.67,0,0,0,.436,2.241,1.616,1.616,0,0,0,1.038.913,7.212,7.212,0,0,0,1.951.208l.083.5H26.81l.083-.5a7.014,7.014,0,0,0,1.909-.208,1.616,1.616,0,0,0,1.038-.913,6.67,6.67,0,0,0,.436-2.241q.1-1.536.1-4.15v-2.407q0-3.03-.1-4.793a7.42,7.42,0,0,0-.5-2.594,1.859,1.859,0,0,0-1.2-1.058,8.525,8.525,0,0,0-2.22-.228L26.27-48.6l1.038-.125q1.038-.125,2.635-.249t3.341-.124v6.1a8.391,8.391,0,0,1,2.054-4.627A5.442,5.442,0,0,1,39.468-49.3Zm13.82.208v13.2q0,2.158.083,3.424a4.843,4.843,0,0,0,.415,1.888,1.653,1.653,0,0,0,1.038.83,7.212,7.212,0,0,0,1.951.208l.083.5H46.731l.083-.5a7.656,7.656,0,0,0,2.013-.208,1.645,1.645,0,0,0,1.058-.851,5.084,5.084,0,0,0,.415-1.93q.083-1.287.083-3.445V-39.3q0-3.03-.1-4.814a7.5,7.5,0,0,0-.519-2.656,2.062,2.062,0,0,0-1.224-1.141,7.452,7.452,0,0,0-2.262-.27l-.083-.457,1.058-.125q1.058-.125,2.677-.228T53.288-49.094Zm-3.943-6.64a2.272,2.272,0,0,1,.706-1.66,2.272,2.272,0,0,1,1.66-.706,2.272,2.272,0,0,1,1.66.706,2.272,2.272,0,0,1,.706,1.66,2.272,2.272,0,0,1-.706,1.66,2.272,2.272,0,0,1-1.66.706,2.272,2.272,0,0,1-1.66-.706A2.272,2.272,0,0,1,49.345-55.734ZM68.27-53.784v5.1h5.1v.913h-5.1v15.812a2.146,2.146,0,0,0,.415,1.411,1.338,1.338,0,0,0,1.079.5,6.236,6.236,0,0,0,1.66-.228,17.834,17.834,0,0,0,1.868-.643l.083.457a15.863,15.863,0,0,1-2.449,1.287,6.906,6.906,0,0,1-2.7.54,3.081,3.081,0,0,1-2.117-.664,3.263,3.263,0,0,1-.747-2.49V-47.766h-2.49v-.913a4.029,4.029,0,0,0,2.532-.685,3.99,3.99,0,0,0,1.287-1.847,16.363,16.363,0,0,0,.664-2.49Zm16.1,0v5.1h5.1v.913h-5.1v15.812a2.146,2.146,0,0,0,.415,1.411,1.338,1.338,0,0,0,1.079.5,6.236,6.236,0,0,0,1.66-.228,17.835,17.835,0,0,0,1.868-.643l.083.457a15.864,15.864,0,0,1-2.449,1.287,6.906,6.906,0,0,1-2.7.54,3.081,3.081,0,0,1-2.117-.664,3.263,3.263,0,0,1-.747-2.49V-47.766h-2.49v-.913a4.029,4.029,0,0,0,2.532-.685A3.99,3.99,0,0,0,82.8-51.211a16.363,16.363,0,0,0,.664-2.49Zm25.9,11.33v4.192q0,2.947.1,4.565a5.588,5.588,0,0,0,.477,2.262,1.215,1.215,0,0,0,1.121.643,2.606,2.606,0,0,0,1-.187q.457-.187.872-.394l.208.415-.83.519a13.066,13.066,0,0,1-2.262,1.058,8.942,8.942,0,0,1-3.175.54,20.009,20.009,0,0,1-.29-2.324q-.125-1.536-.125-3.237a14.634,14.634,0,0,1-1.224,2.7,6.643,6.643,0,0,1-2.054,2.2,5.805,5.805,0,0,1-3.32.872A5.761,5.761,0,0,1,96.782-30a4.851,4.851,0,0,1-1.536-3.818,5.476,5.476,0,0,1,1.2-3.507,7.826,7.826,0,0,1,3.86-2.366,23.792,23.792,0,0,1,7.055-.851v-1.494a14.608,14.608,0,0,0-.311-3.175,3.966,3.966,0,0,0-1.2-2.179,3.8,3.8,0,0,0-2.594-.789,3.3,3.3,0,0,0-1.826.436,3.509,3.509,0,0,0-1.058,1.058,10.252,10.252,0,0,0-.685,1.266A4.124,4.124,0,0,1,99-44.342a1.408,1.408,0,0,1-1.1.436,1.247,1.247,0,0,1-1.411-1.411,2.553,2.553,0,0,1,1-2.034,7.009,7.009,0,0,1,2.594-1.287,12.1,12.1,0,0,1,3.341-.457,7.474,7.474,0,0,1,4.9,1.6Q110.27-45.9,110.27-42.454ZM101.43-29.92a4.08,4.08,0,0,0,2.739-.955,6.976,6.976,0,0,0,1.805-2.449,14.189,14.189,0,0,0,1.017-3.175,18.927,18.927,0,0,0,.374-3.092,14.232,14.232,0,0,0-5.25.872,6.1,6.1,0,0,0-2.843,2.158,5.188,5.188,0,0,0-.872,2.905,4.577,4.577,0,0,0,.747,2.635A2.57,2.57,0,0,0,101.43-29.92ZM135.586-42a6.933,6.933,0,0,1-1.038,3.714,7.7,7.7,0,0,1-2.781,2.677,7.722,7.722,0,0,1-3.9,1,7.7,7.7,0,0,1-4.067-1.079,5.709,5.709,0,0,0-1.328,1.681,3.812,3.812,0,0,0-.415,1.681,2.379,2.379,0,0,0,.892,1.909,3.6,3.6,0,0,0,2.386.747q2.656,0,4.959.1a19.2,19.2,0,0,1,4.026.56,5.644,5.644,0,0,1,2.7,1.473,3.94,3.94,0,0,1,.975,2.843,5.618,5.618,0,0,1-1.37,3.569,9.889,9.889,0,0,1-3.839,2.781,14.593,14.593,0,0,1-5.872,1.079,11.694,11.694,0,0,1-6.059-1.39,4.164,4.164,0,0,1-2.324-3.673,5.254,5.254,0,0,1,1.058-3.071,5.247,5.247,0,0,1,2.8-2.034,3.6,3.6,0,0,1-1.847-1.556,4.445,4.445,0,0,1-.56-2.179,4.986,4.986,0,0,1,.892-2.739,7.621,7.621,0,0,1,2.22-2.241,7.958,7.958,0,0,1-2.137-2.552,6.893,6.893,0,0,1-.809-3.3,6.593,6.593,0,0,1,1.038-3.673,7.237,7.237,0,0,1,2.8-2.511,8.314,8.314,0,0,1,3.88-.913,8.419,8.419,0,0,1,2.967.519,7.719,7.719,0,0,1,2.428,1.432,3.364,3.364,0,0,0,.789-1.2,3.465,3.465,0,0,0,.249-1.2,5.06,5.06,0,0,0-.125-1.1,4.727,4.727,0,0,1-.125-1.017,1.592,1.592,0,0,1,.5-1.266,1.608,1.608,0,0,1,1.079-.436,1.608,1.608,0,0,1,1.079.436,1.592,1.592,0,0,1,.5,1.266,4.4,4.4,0,0,1-1.017,2.573,12.329,12.329,0,0,1-2.428,2.449,7.3,7.3,0,0,1,1.328,2.1A6.51,6.51,0,0,1,135.586-42Zm-7.719,6.308a3.9,3.9,0,0,0,3.528-1.826A8.184,8.184,0,0,0,132.556-42a7.567,7.567,0,0,0-1.162-4.358,3.982,3.982,0,0,0-3.528-1.7,3.982,3.982,0,0,0-3.528,1.7A7.567,7.567,0,0,0,123.177-42a8.184,8.184,0,0,0,1.162,4.482A3.9,3.9,0,0,0,127.866-35.689Zm-4.275,8.508a4.971,4.971,0,0,0-1.411,1.639,5.27,5.27,0,0,0-.747,2.8,3.976,3.976,0,0,0,1.639,3.3,6.835,6.835,0,0,0,4.3,1.266,9.592,9.592,0,0,0,3.818-.747,7.643,7.643,0,0,0,2.822-1.992,4.141,4.141,0,0,0,1.079-2.781,2.623,2.623,0,0,0-1-2.241,7.272,7.272,0,0,0-3.486-1Q128.115-27.181,123.592-27.181Zm36.314-12.367H146.293v.706a12.306,12.306,0,0,0,.913,5.1,6.66,6.66,0,0,0,2.407,2.947,5.831,5.831,0,0,0,3.2.955,7.89,7.89,0,0,0,3.382-.768,5.64,5.64,0,0,0,2.594-2.552l.623.332a6.973,6.973,0,0,1-3.092,3.237,9.189,9.189,0,0,1-4.129.955,8.994,8.994,0,0,1-4.4-1.141,8.615,8.615,0,0,1-3.362-3.424,11.353,11.353,0,0,1-1.287-5.644,12.484,12.484,0,0,1,1.038-5.146,8.987,8.987,0,0,1,2.967-3.714,7.774,7.774,0,0,1,4.669-1.39,7.469,7.469,0,0,1,4.482,1.287,7.974,7.974,0,0,1,2.7,3.445A12.24,12.24,0,0,1,159.905-39.549Zm-8.051-8.715a4.266,4.266,0,0,0-3.86,2.158,12.209,12.209,0,0,0-1.619,5.354H156.71a12.37,12.37,0,0,0-1.245-5.457A3.81,3.81,0,0,0,151.854-48.264Z" transform="translate(85.092 247.301)" fill="#fff"/>
    <path data-name="Path 2832 - Outline" d="M50.711-60.1a3.249,3.249,0,0,1,2.367,1,3.249,3.249,0,0,1,1,2.367,3.249,3.249,0,0,1-1,2.367,3.249,3.249,0,0,1-2.367,1,3.249,3.249,0,0,1-2.367-1,3.249,3.249,0,0,1-1-2.367,3.249,3.249,0,0,1,1-2.367A3.249,3.249,0,0,1,50.711-60.1Zm0,4.731a1.281,1.281,0,0,0,.953-.413,1.281,1.281,0,0,0,.413-.953,1.281,1.281,0,0,0-.413-.953,1.281,1.281,0,0,0-.953-.413,1.281,1.281,0,0,0-.953.413,1.281,1.281,0,0,0-.413.953,1.281,1.281,0,0,0,.413.953A1.281,1.281,0,0,0,50.711-55.369Zm17.559-.51v5.2h5.1v2.913h-5.1v14.812a1.251,1.251,0,0,0,.183.771.345.345,0,0,0,.311.138,5.265,5.265,0,0,0,1.395-.192,16.927,16.927,0,0,0,1.761-.608l1.136-.455.422,2.319-.563.362a16.941,16.941,0,0,1-2.6,1.368,7.933,7.933,0,0,1-3.084.617,4.051,4.051,0,0,1-2.781-.917,4.118,4.118,0,0,1-1.083-3.238V-47.766h-2.49v-2.913h1a3.121,3.121,0,0,0,1.914-.471,2.986,2.986,0,0,0,.963-1.4,15.436,15.436,0,0,0,.623-2.338l.139-.743Zm-2,7.2v-2.379a4.828,4.828,0,0,1-1.021,1.292h.116v16.978c0,1.243.288,1.633.411,1.743a2.111,2.111,0,0,0,1.4.411,2.524,2.524,0,0,1-.259-.269,3.114,3.114,0,0,1-.647-2.051Zm18.1-7.2v5.2h5.1v2.913h-5.1v14.812a1.251,1.251,0,0,0,.183.771.345.345,0,0,0,.311.138,5.265,5.265,0,0,0,1.395-.192,16.928,16.928,0,0,0,1.761-.608l1.136-.455.422,2.319-.563.362a16.94,16.94,0,0,1-2.6,1.368,7.933,7.933,0,0,1-3.084.617,4.051,4.051,0,0,1-2.781-.917,4.118,4.118,0,0,1-1.083-3.238V-47.766h-2.49v-2.913h1a3.121,3.121,0,0,0,1.914-.471,2.986,2.986,0,0,0,.963-1.4,15.437,15.437,0,0,0,.623-2.338l.139-.743Zm-2,7.2v-2.379a4.828,4.828,0,0,1-1.021,1.292h.116v16.978c0,1.243.288,1.633.411,1.743a2.111,2.111,0,0,0,1.4.411,2.525,2.525,0,0,1-.259-.269,3.114,3.114,0,0,1-.647-2.051Zm52.255-6.69a2.587,2.587,0,0,1,1.738.683,2.564,2.564,0,0,1,.84,2.018A5.378,5.378,0,0,1,135.99-49.5a13.182,13.182,0,0,1-1.838,2,8.5,8.5,0,0,1,.857,1.561,7.533,7.533,0,0,1,.576,2.94,7.95,7.95,0,0,1-1.187,4.24,8.728,8.728,0,0,1-3.135,3.02,8.744,8.744,0,0,1-4.4,1.128,8.894,8.894,0,0,1-3.885-.845,4,4,0,0,0-.611.885,2.8,2.8,0,0,0-.314,1.242,1.378,1.378,0,0,0,.534,1.142,2.622,2.622,0,0,0,1.744.514c1.777,0,3.461.035,5,.1a20.285,20.285,0,0,1,4.237.593,6.646,6.646,0,0,1,3.163,1.748,4.915,4.915,0,0,1,1.254,3.535,6.615,6.615,0,0,1-1.591,4.2,10.917,10.917,0,0,1-4.218,3.07,15.645,15.645,0,0,1-6.273,1.163,12.714,12.714,0,0,1-6.573-1.532,6.111,6.111,0,0,1-2.075-1.937,4.773,4.773,0,0,1-.736-2.594,6.256,6.256,0,0,1,1.242-3.649,6.34,6.34,0,0,1,1.605-1.59,4.115,4.115,0,0,1-.71-.939,5.454,5.454,0,0,1-.684-2.661,5.987,5.987,0,0,1,1.054-3.285,8.779,8.779,0,0,1,1.5-1.756,9.074,9.074,0,0,1-1.462-2.02A7.913,7.913,0,0,1,118.147-43a7.606,7.606,0,0,1,1.2-4.218,8.258,8.258,0,0,1,3.18-2.854,9.342,9.342,0,0,1,4.34-1.025,9.454,9.454,0,0,1,3.317.582,9.052,9.052,0,0,1,1.873.953q.031-.068.057-.139a2.507,2.507,0,0,0,.185-.852,4.084,4.084,0,0,0-.1-.883,5.741,5.741,0,0,1-.148-1.234,2.564,2.564,0,0,1,.84-2.018A2.587,2.587,0,0,1,134.627-55.369Zm-.328,4.792.085-.113a3.475,3.475,0,0,0,.82-1.977c0-.376-.118-.479-.157-.513a.608.608,0,0,0-.421-.188.608.608,0,0,0-.42.188c-.039.034-.157.137-.157.513a3.761,3.761,0,0,0,.1.8A6.1,6.1,0,0,1,134.3-50.577Zm-7.433,12.888a2.9,2.9,0,0,0,2.684-1.363A7.246,7.246,0,0,0,130.556-43a6.634,6.634,0,0,0-.988-3.794,2.981,2.981,0,0,0-2.7-1.266,2.981,2.981,0,0,0-2.7,1.266A6.634,6.634,0,0,0,123.177-43a7.246,7.246,0,0,0,1.006,3.945A2.9,2.9,0,0,0,126.866-37.689Zm-4.539-.566A9.361,9.361,0,0,1,121.177-43a8.867,8.867,0,0,1,1.081-4.517,6.066,6.066,0,0,0-1.234,1.389A5.565,5.565,0,0,0,120.147-43a5.854,5.854,0,0,0,.691,2.828A7.034,7.034,0,0,0,122.327-38.255Zm9.458-8.976-.184-.162-.11-.094A8.886,8.886,0,0,1,132.556-43a9.391,9.391,0,0,1-1.122,4.692,6.7,6.7,0,0,0,1.263-1.5A5.9,5.9,0,0,0,133.586-43a5.546,5.546,0,0,0-.42-2.164,6.335,6.335,0,0,0-1.146-1.811Zm2.751,24.837q.162-.174.308-.356a4.611,4.611,0,0,0,1.149-2.942,2.968,2.968,0,0,0-.7-2.151,4.7,4.7,0,0,0-2.232-1.2,18.308,18.308,0,0,0-3.814-.528c-1.513-.068-3.167-.1-4.914-.1a4.578,4.578,0,0,1-3.028-.98,3.377,3.377,0,0,1-1.231-2.3,3.327,3.327,0,0,0-.094.781,3.429,3.429,0,0,0,.436,1.7,2.61,2.61,0,0,0,1.358,1.117l.481.2.049-.031h.287c3.035,0,5.428.085,7.113.254a8.072,8.072,0,0,1,3.987,1.191,3.6,3.6,0,0,1,1.4,3.041A4.989,4.989,0,0,1,134.536-22.393Zm-8.168,2.218a8.643,8.643,0,0,0,3.424-.666,6.69,6.69,0,0,0,2.46-1.728,3.145,3.145,0,0,0,.835-2.126,1.605,1.605,0,0,0-.6-1.441,6.211,6.211,0,0,0-2.986-.8c-1.558-.156-3.771-.238-6.581-.244a5.233,5.233,0,0,0-.89,1.16,4.252,4.252,0,0,0-.6,2.28,2.963,2.963,0,0,0,1.25,2.508A5.9,5.9,0,0,0,126.368-20.175ZM120.75-20.3a4.939,4.939,0,0,1-.8-1.156,5.09,5.09,0,0,1-.514-2.287,6.4,6.4,0,0,1,.617-2.816,4.541,4.541,0,0,0-.648.738,4.245,4.245,0,0,0-.874,2.493,3.169,3.169,0,0,0,1.837,2.815Q120.552-20.4,120.75-20.3Zm-82.283-31a4.79,4.79,0,0,1,2.249.55A2.368,2.368,0,0,1,42.083-48.6a2.507,2.507,0,0,1-.911,2.044,2.745,2.745,0,0,1-1.749.658,2.962,2.962,0,0,1-1.585-.419c-.268-.166-.567-.335-.89-.5a2.283,2.283,0,0,0-1.012-.157c-.361,0-.726.314-1.085.933a10.967,10.967,0,0,0-1.149,3.4,24.529,24.529,0,0,0-.418,4.585c0,1.713.034,3.086.1,4.083a5.607,5.607,0,0,0,.343,1.883.616.616,0,0,0,.415.379,6.151,6.151,0,0,0,1.668.167h.847l.416,2.5H24.629l.416-2.5h.847a5.963,5.963,0,0,0,1.627-.167.616.616,0,0,0,.415-.379,5.607,5.607,0,0,0,.343-1.883c.067-1,.1-2.37.1-4.083v-2.407c0-1.991-.034-3.584-.1-4.735a6.345,6.345,0,0,0-.4-2.223.851.851,0,0,0-.572-.525,7.636,7.636,0,0,0-1.949-.191h-.835L24.1-50.462l2.092-.251c.7-.084,1.6-.169,2.677-.253s2.236-.128,3.419-.128h1v2.155q.159-.192.329-.371A6.429,6.429,0,0,1,38.468-51.3Zm.955,3.4a.751.751,0,0,0,.492-.214c.05-.041.168-.136.168-.488,0-.106,0-.226-.295-.38a2.771,2.771,0,0,0-1.32-.321,5.036,5.036,0,0,0-1.931.35,3.577,3.577,0,0,1,1.334.356c.366.19.709.384,1.02.576A1.012,1.012,0,0,0,39.422-47.9Zm-7.485,3.955-.654-.05v-5.09c-.7.015-1.393.047-2.056.1a3.216,3.216,0,0,1,.452.706,8.244,8.244,0,0,1,.593,2.964c.07,1.19.105,2.822.105,4.852v2.407c0,1.757-.036,3.176-.106,4.218a7.5,7.5,0,0,1-.529,2.6q-.047.1-.1.193h2.373q-.052-.093-.1-.193a7.5,7.5,0,0,1-.529-2.6c-.07-1.041-.106-2.46-.106-4.218a26.53,26.53,0,0,1,.454-4.96Q31.829-43.5,31.938-43.943ZM10.994-51.094a8.475,8.475,0,0,1,5.067,1.475,9,9,0,0,1,3.034,3.866,13.288,13.288,0,0,1,.992,5.2v1H6.476a11.062,11.062,0,0,0,.82,4.394,5.717,5.717,0,0,0,2.036,2.521,4.808,4.808,0,0,0,2.657.8,6.934,6.934,0,0,0,2.958-.673,4.627,4.627,0,0,0,2.136-2.118l.471-.881,2.37,1.264-.445.874a7.979,7.979,0,0,1-3.54,3.68,10.222,10.222,0,0,1-4.573,1.058A10.023,10.023,0,0,1,6.486-29.9a9.638,9.638,0,0,1-3.751-3.809A12.382,12.382,0,0,1,1.32-39.843,13.533,13.533,0,0,1,2.444-45.4a10.014,10.014,0,0,1,3.3-4.118A8.786,8.786,0,0,1,10.994-51.094Zm3.832,8.342a10.314,10.314,0,0,0-1.058-3.979,2.821,2.821,0,0,0-2.733-1.533,3.26,3.26,0,0,0-3.008,1.682,10.459,10.459,0,0,0-1.338,3.83Zm3.224,1.2a10.817,10.817,0,0,0-.8-3.424,7.163,7.163,0,0,0-1.521-2.309,14.03,14.03,0,0,1,1.159,5.493l.009.24Zm-13.516,0,.027-.294a13.654,13.654,0,0,1,1.506-5.345,8.29,8.29,0,0,0-1.8,2.606,11.55,11.55,0,0,0-.951,4.739A10.431,10.431,0,0,0,4.478-34.69,7.756,7.756,0,0,0,7.194-31.8a8.44,8.44,0,0,1-1.716-2.522,13.332,13.332,0,0,1-1-5.521v-.909H4.462l.012-.132v-.664Zm47.753-9.545h1v14.2c0,1.41.027,2.54.081,3.358a3.836,3.836,0,0,0,.3,1.483.66.66,0,0,0,.437.341,6.151,6.151,0,0,0,1.668.167h.847l.416,2.5H44.55l.416-2.5h.847a6.587,6.587,0,0,0,1.738-.169A.646.646,0,0,0,48-32.064,4.07,4.07,0,0,0,48.3-33.6c.054-.832.081-1.97.081-3.38V-40.3c0-1.991-.034-3.591-.1-4.756a6.428,6.428,0,0,0-.423-2.284,1.059,1.059,0,0,0-.638-.623,6.387,6.387,0,0,0-1.946-.218H44.44l-.423-2.325,2.116-.249c.72-.085,1.638-.163,2.73-.233S51.11-51.094,52.288-51.094Zm-.349,20.045-.036-.065a5.715,5.715,0,0,1-.531-2.293c-.057-.862-.085-2.036-.085-3.489V-49.085c-.734.013-1.452.041-2.147.083a3.469,3.469,0,0,1,.523.8,8.337,8.337,0,0,1,.614,3.028c.07,1.2.105,2.843.105,4.872v3.32c0,1.453-.029,2.634-.085,3.509a5.956,5.956,0,0,1-.524,2.324q-.026.05-.053.1Zm50.483-20.045a8.478,8.478,0,0,1,5.531,1.824c1.537,1.259,2.317,3.216,2.317,5.816v4.192c0,1.934.034,3.448.1,4.5a4.58,4.58,0,0,0,.344,1.824.233.233,0,0,0,.256.145,1.6,1.6,0,0,0,.617-.112c.28-.114.55-.237.8-.363l.894-.447,1.061,2.123-1.6,1a13.9,13.9,0,0,1-2.439,1.146,9.977,9.977,0,0,1-3.527.6h-.811l-.167-.794a17.419,17.419,0,0,1-.257-1.862,7.693,7.693,0,0,1-1.9,1.82,6.8,6.8,0,0,1-3.881,1.044,6.753,6.753,0,0,1-4.65-1.623,5.829,5.829,0,0,1-1.87-4.564,6.477,6.477,0,0,1,1.421-4.129A8.82,8.82,0,0,1,99-41.646a23.129,23.129,0,0,1,6.36-.887v-.506A13.686,13.686,0,0,0,105.077-46a2.972,2.972,0,0,0-.89-1.648,2.885,2.885,0,0,0-1.932-.538,2.415,2.415,0,0,0-1.277.272,2.5,2.5,0,0,0-.762.757A9.3,9.3,0,0,0,99.6-46.01a5.137,5.137,0,0,1-.855,1.338,2.388,2.388,0,0,1-1.841.765,2.4,2.4,0,0,1-1.765-.646,2.4,2.4,0,0,1-.646-1.765,3.567,3.567,0,0,1,1.356-2.8,8.025,8.025,0,0,1,2.959-1.48A13.158,13.158,0,0,1,102.422-51.094ZM96.9-45.906c.262,0,.332-.078.358-.107a3.153,3.153,0,0,0,.515-.82,11.3,11.3,0,0,1,.751-1.389q.075-.119.158-.233a5.416,5.416,0,0,0-1.558.872,1.566,1.566,0,0,0-.636,1.265.679.679,0,0,0,.06.351A.68.68,0,0,0,96.9-45.906Zm12.624,14.618a2.363,2.363,0,0,1-.541-.644,6.3,6.3,0,0,1-.61-2.7c-.07-1.1-.106-2.653-.106-4.629v-4.192c0-2-.518-3.4-1.584-4.269q-.084-.069-.17-.134a5.707,5.707,0,0,1,.514,1.425,15.668,15.668,0,0,1,.335,3.393V-41.6h.03l-.031,1.059a20.04,20.04,0,0,1-.392,3.24,15.688,15.688,0,0,1-.456,1.764l.848.138c0,1.1.041,2.164.121,3.156.043.526.089.983.138,1.368A7.556,7.556,0,0,0,109.526-31.289Zm-9.1-.632a3.085,3.085,0,0,0,2.091-.716,6.018,6.018,0,0,0,1.545-2.1,13.257,13.257,0,0,0,.945-2.952c.129-.651.223-1.273.283-1.86a11.759,11.759,0,0,0-3.79.755,5.162,5.162,0,0,0-2.395,1.785,4.171,4.171,0,0,0-.708,2.356,3.572,3.572,0,0,0,.574,2.073A1.549,1.549,0,0,0,100.43-31.92Zm-2.72.941a3.539,3.539,0,0,1-.39-.479,5.577,5.577,0,0,1-.92-3.2,6.2,6.2,0,0,1,1.035-3.454,5.72,5.72,0,0,1,1.1-1.231,5.882,5.882,0,0,0-2.307,1.634,4.464,4.464,0,0,0-.987,2.885,3.868,3.868,0,0,0,1.2,3.072A4.106,4.106,0,0,0,97.71-30.979Zm53.1-20.115a8.475,8.475,0,0,1,5.067,1.475,9,9,0,0,1,3.034,3.866,13.288,13.288,0,0,1,.992,5.2v1H146.3a11.062,11.062,0,0,0,.82,4.394,5.717,5.717,0,0,0,2.036,2.521,4.808,4.808,0,0,0,2.657.8,6.934,6.934,0,0,0,2.958-.673,4.627,4.627,0,0,0,2.136-2.118l.471-.881,2.37,1.264-.445.874a7.979,7.979,0,0,1-3.54,3.68,10.223,10.223,0,0,1-4.573,1.058,10.023,10.023,0,0,1-4.881-1.265,9.638,9.638,0,0,1-3.751-3.809,12.382,12.382,0,0,1-1.415-6.135,13.533,13.533,0,0,1,1.124-5.554,10.014,10.014,0,0,1,3.3-4.118A8.786,8.786,0,0,1,150.813-51.094Zm3.832,8.342a10.313,10.313,0,0,0-1.058-3.979,2.82,2.82,0,0,0-2.733-1.533,3.26,3.26,0,0,0-3.008,1.682,10.458,10.458,0,0,0-1.338,3.83Zm3.224,1.2a10.818,10.818,0,0,0-.8-3.425,7.164,7.164,0,0,0-1.521-2.309,14.03,14.03,0,0,1,1.159,5.493l.009.24Zm-13.516,0,.027-.294a13.653,13.653,0,0,1,1.506-5.345,8.29,8.29,0,0,0-1.8,2.606,11.55,11.55,0,0,0-.951,4.739A10.431,10.431,0,0,0,144.3-34.69a7.757,7.757,0,0,0,2.716,2.891,8.44,8.44,0,0,1-1.716-2.522,13.332,13.332,0,0,1-1-5.521v-.909h-.012l.012-.132v-.664Z" transform="translate(86.092 248.301)" fill="#fff"/>
    <path data-name="Path 2833" d="M2.869-11.58a2.1,2.1,0,0,1,1.173.318,2.1,2.1,0,0,1,.751.85,2.636,2.636,0,0,1,.261,1.178A2.7,2.7,0,0,1,4.8-8.065a2.066,2.066,0,0,1-.727.85,2.017,2.017,0,0,1-1.15.318,2.069,2.069,0,0,1-1.154-.318,2.1,2.1,0,0,1-.751-.85A2.615,2.615,0,0,1,.76-9.234a2.763,2.763,0,0,1,.247-1.178,2.032,2.032,0,0,1,.722-.85A2,2,0,0,1,2.869-11.58Zm.057,4.494a1.13,1.13,0,0,0,.8-.29,1.7,1.7,0,0,0,.461-.779,3.73,3.73,0,0,0,.147-1.078,3.457,3.457,0,0,0-.162-1.088,1.762,1.762,0,0,0-.485-.779,1.164,1.164,0,0,0-.808-.29,1.117,1.117,0,0,0-.789.29,1.7,1.7,0,0,0-.461.779,3.766,3.766,0,0,0-.147,1.088,3.424,3.424,0,0,0,.162,1.078,1.762,1.762,0,0,0,.485.779A1.151,1.151,0,0,0,2.926-7.087Zm9.785-5.567v1.169H13.88v.209H12.711v3.62a.491.491,0,0,0,.1.323.306.306,0,0,0,.247.114,1.428,1.428,0,0,0,.38-.052,4.083,4.083,0,0,0,.428-.147l.019.1a3.632,3.632,0,0,1-.561.295A1.581,1.581,0,0,1,12.7-6.9a.705.705,0,0,1-.485-.152.747.747,0,0,1-.171-.57v-3.658h-.57v-.209a.922.922,0,0,0,.58-.157.913.913,0,0,0,.295-.423,3.745,3.745,0,0,0,.152-.57ZM23.893-9.4H20.777v.162a2.817,2.817,0,0,0,.209,1.169,1.525,1.525,0,0,0,.551.675,1.335,1.335,0,0,0,.732.219,1.806,1.806,0,0,0,.774-.176,1.291,1.291,0,0,0,.594-.584l.143.076a1.6,1.6,0,0,1-.708.741,2.1,2.1,0,0,1-.945.219,2.059,2.059,0,0,1-1.007-.261,1.972,1.972,0,0,1-.77-.784,2.6,2.6,0,0,1-.295-1.292,2.858,2.858,0,0,1,.238-1.178,2.057,2.057,0,0,1,.679-.85,1.78,1.78,0,0,1,1.069-.318,1.71,1.71,0,0,1,1.026.295,1.825,1.825,0,0,1,.618.789A2.8,2.8,0,0,1,23.893-9.4Zm-1.843-2a.976.976,0,0,0-.884.494A2.8,2.8,0,0,0,20.8-9.671h2.366a2.832,2.832,0,0,0-.285-1.249A.872.872,0,0,0,22.05-11.39Zm9.662-2.594v5.339q0,.523.019.831a1.174,1.174,0,0,0,.1.461.39.39,0,0,0,.242.2,1.651,1.651,0,0,0,.447.048l.019.114H30.211l.019-.114a1.753,1.753,0,0,0,.461-.048.374.374,0,0,0,.242-.2,1.248,1.248,0,0,0,.1-.461q.019-.309.019-.831v-3.629q0-.513-.019-.817a1.148,1.148,0,0,0-.1-.447.364.364,0,0,0-.242-.185,1.939,1.939,0,0,0-.461-.043l-.019-.1.209-.029q.209-.028.556-.057T31.712-13.984Zm22.05,6.878.019.114H52.347a2.68,2.68,0,0,1-.646-.266,5.857,5.857,0,0,1-.817-.542,2.413,2.413,0,0,1-.95.689A3.052,3.052,0,0,1,48.8-6.9a2.176,2.176,0,0,1-1.558-.523,1.858,1.858,0,0,1-.551-1.416,1.732,1.732,0,0,1,.276-.941,2.861,2.861,0,0,1,.722-.77,4.07,4.07,0,0,1,.96-.532q-.029-.162-.048-.333a3.181,3.181,0,0,1-.019-.352,2.126,2.126,0,0,1,.209-.955,1.683,1.683,0,0,1,.58-.67,1.522,1.522,0,0,1,.865-.247,1.153,1.153,0,0,1,.846.318,1.035,1.035,0,0,1,.323.765,1.422,1.422,0,0,1-.143.608,1.18,1.18,0,0,1-.485.508,2.049,2.049,0,0,1-.95.233,4.363,4.363,0,0,0,.675.252,3.522,3.522,0,0,0,1.007.128,1.556,1.556,0,0,0,.7-.147,3.716,3.716,0,0,0,.494-.29.846.846,0,0,1,.437-.2.189.189,0,0,1,.176.071.317.317,0,0,1,.043.166.331.331,0,0,1-.19.285,1.873,1.873,0,0,1-.466.19,4.35,4.35,0,0,1-.542.114q-.266.038-.428.048a5.737,5.737,0,0,1-.147,1.278,4.238,4.238,0,0,1-.366.993,7.675,7.675,0,0,0,.741.523,6.234,6.234,0,0,0,.912.475A2.443,2.443,0,0,0,53.763-7.106Zm-4.494-4.646a3.2,3.2,0,0,0,.157.879,4.816,4.816,0,0,0,.527,1.131,5.813,5.813,0,0,0,.988,1.183,4.371,4.371,0,0,0,.28-.964,6.91,6.91,0,0,0,.1-1.069,2.869,2.869,0,0,1-.969-.228,3.345,3.345,0,0,1-.646-.38v-.086a1.018,1.018,0,0,0,.57-.162,1.151,1.151,0,0,0,.39-.428,1.208,1.208,0,0,0,.143-.58,1.456,1.456,0,0,0-.162-.717.508.508,0,0,0-.466-.29.761.761,0,0,0-.646.447A2.485,2.485,0,0,0,49.269-11.751Zm-.323,4.57a2.432,2.432,0,0,0,.983-.185,1.676,1.676,0,0,0,.717-.622,8.286,8.286,0,0,1-.817-.817,5.972,5.972,0,0,1-.7-.993,4.325,4.325,0,0,1-.447-1.135,2.269,2.269,0,0,0-1.226,2.109,1.805,1.805,0,0,0,.209.907,1.4,1.4,0,0,0,.551.551A1.513,1.513,0,0,0,48.946-7.182Zm20.872.067a1.99,1.99,0,0,0,.722-.128,1.176,1.176,0,0,0,.542-.418,1.3,1.3,0,0,0,.209-.774,1.09,1.09,0,0,0-.237-.7,2.51,2.51,0,0,0-.613-.542q-.375-.242-.793-.48a8.1,8.1,0,0,1-.793-.513,2.481,2.481,0,0,1-.613-.637A1.52,1.52,0,0,1,68-12.16a1.382,1.382,0,0,1,.252-.827,1.67,1.67,0,0,1,.675-.546,2.21,2.21,0,0,1,.936-.195,4.079,4.079,0,0,1,.945.114,3.748,3.748,0,0,1,.8.276,7.655,7.655,0,0,1-.047.865q-.048.418-.1.77l-.143-.038a2.1,2.1,0,0,0-.223-1.045,1.363,1.363,0,0,0-.561-.561,1.471,1.471,0,0,0-.67-.171,1.237,1.237,0,0,0-.893.328,1.1,1.1,0,0,0-.342.831,1.1,1.1,0,0,0,.238.713,2.4,2.4,0,0,0,.613.527q.375.233.793.456a7.391,7.391,0,0,1,.793.489,2.321,2.321,0,0,1,.613.632,1.578,1.578,0,0,1,.238.879,1.588,1.588,0,0,1-.309,1.017,1.786,1.786,0,0,1-.793.57,2.888,2.888,0,0,1-1.017.181,3.518,3.518,0,0,1-.632-.062,3.083,3.083,0,0,1-.651-.195,1.878,1.878,0,0,1-.542-.342,8.052,8.052,0,0,1,.038-.817q.038-.371.076-.722l.142.029a2.317,2.317,0,0,0,.219,1.069,1.44,1.44,0,0,0,.58.622A1.585,1.585,0,0,0,69.818-7.115Zm9.909-5.539v1.169H80.9v.209H79.727v3.62a.491.491,0,0,0,.1.323.306.306,0,0,0,.247.114,1.427,1.427,0,0,0,.38-.052,4.082,4.082,0,0,0,.428-.147l.019.1a3.632,3.632,0,0,1-.561.295,1.581,1.581,0,0,1-.618.124.705.705,0,0,1-.485-.152.747.747,0,0,1-.171-.57v-3.658h-.57v-.209a.922.922,0,0,0,.58-.157.913.913,0,0,0,.295-.423,3.746,3.746,0,0,0,.152-.57ZM90.6-10.06v.96q0,.675.024,1.045a1.279,1.279,0,0,0,.109.518.278.278,0,0,0,.257.147.6.6,0,0,0,.228-.043q.1-.043.2-.09l.048.1-.19.119a2.991,2.991,0,0,1-.518.242,2.047,2.047,0,0,1-.727.124,4.581,4.581,0,0,1-.067-.532q-.029-.352-.028-.741a3.351,3.351,0,0,1-.28.618,1.521,1.521,0,0,1-.47.5,1.329,1.329,0,0,1-.76.2,1.319,1.319,0,0,1-.912-.314,1.111,1.111,0,0,1-.352-.874,1.253,1.253,0,0,1,.276-.8,1.791,1.791,0,0,1,.884-.542,5.446,5.446,0,0,1,1.615-.195v-.342a3.344,3.344,0,0,0-.071-.727.908.908,0,0,0-.276-.5A.87.87,0,0,0,89-11.371a.756.756,0,0,0-.418.1.8.8,0,0,0-.242.242,2.346,2.346,0,0,0-.157.29.944.944,0,0,1-.157.247.322.322,0,0,1-.252.1.286.286,0,0,1-.323-.323.584.584,0,0,1,.228-.466,1.6,1.6,0,0,1,.594-.295,2.77,2.77,0,0,1,.765-.1,1.711,1.711,0,0,1,1.121.366A1.406,1.406,0,0,1,90.6-10.06ZM88.581-7.191a.934.934,0,0,0,.627-.219,1.6,1.6,0,0,0,.413-.561,3.249,3.249,0,0,0,.233-.727A4.334,4.334,0,0,0,89.94-9.4a3.258,3.258,0,0,0-1.2.2,1.4,1.4,0,0,0-.651.494,1.188,1.188,0,0,0-.2.665,1.048,1.048,0,0,0,.171.6A.588.588,0,0,0,88.581-7.191ZM98.234-5a1,1,0,0,0,.817-.39,4.748,4.748,0,0,0,.627-1.159l-1.416-3.572a4.15,4.15,0,0,0-.418-.846.912.912,0,0,0-.371-.337,1.026,1.026,0,0,0-.38-.071l-.019-.114h2.356l-.019.114a.724.724,0,0,0-.466.109.4.4,0,0,0-.124.318,2.32,2.32,0,0,0,.124.656q.123.4.323.9L100-7.543l.741-2.28a4.767,4.767,0,0,0,.176-.641,2.369,2.369,0,0,0,.043-.394.5.5,0,0,0-.142-.371.737.737,0,0,0-.523-.143l-.019-.114h1.786l-.019.114a.916.916,0,0,0-.323.048.494.494,0,0,0-.228.219,3.188,3.188,0,0,0-.238.537q-.133.366-.342,1l-.855,2.6a6.229,6.229,0,0,1-.979,1.976,1.547,1.547,0,0,1-1.169.694.912.912,0,0,1-.447-.1.337.337,0,0,1-.19-.314A.367.367,0,0,1,97.4-5.02a.4.4,0,0,1,.242-.1.63.63,0,0,1,.314.062A.538.538,0,0,0,98.234-5Z" transform="translate(92.122 237.744)" fill="#fbf6e8"/>
    <path data-name="Path 2833 - Outline" d="M31.462-14.484h.25v5.589c0,.342.006.616.019.816a.923.923,0,0,0,.071.359.141.141,0,0,0,.092.077,1.389,1.389,0,0,0,.376.037h.212l.1.614H29.666l.1-.614h.212a1.488,1.488,0,0,0,.392-.038.125.125,0,0,0,.087-.071.994.994,0,0,0,.069-.364c.012-.2.019-.474.019-.816v-3.629c0-.335-.006-.605-.019-.8a.9.9,0,0,0-.066-.344.115.115,0,0,0-.084-.061,1.67,1.67,0,0,0-.4-.035h-.209l-.1-.567.468-.064c.143-.019.335-.039.569-.058S31.2-14.484,31.462-14.484Zm-.105,6.992a1.408,1.408,0,0,1-.125-.556c-.013-.21-.019-.495-.019-.847v-5.086c-.118,0-.233.008-.345.016a.64.64,0,0,1,.036.06,1.363,1.363,0,0,1,.124.549c.013.207.019.487.019.833v3.629c0,.352-.007.637-.019.847a1.466,1.466,0,0,1-.121.556Zm38.259-6.736a4.348,4.348,0,0,1,1,.121,4.013,4.013,0,0,1,.857.3l.138.069v.155a7.947,7.947,0,0,1-.049.893c-.032.279-.064.54-.1.775l-.038.281-.6-.161v-.192a1.87,1.87,0,0,0-.19-.921,1.11,1.11,0,0,0-.457-.462,1.231,1.231,0,0,0-.557-.144.989.989,0,0,0-.72.258.855.855,0,0,0-.265.651.849.849,0,0,0,.182.556,2.167,2.167,0,0,0,.55.472c.244.152.507.3.779.448a7.672,7.672,0,0,1,.82.506,2.581,2.581,0,0,1,.678.7,1.83,1.83,0,0,1,.278,1.015,1.837,1.837,0,0,1-.363,1.172,2.041,2.041,0,0,1-.9.649,3.15,3.15,0,0,1-1.1.2,3.785,3.785,0,0,1-.677-.066,3.348,3.348,0,0,1-.7-.211,2.136,2.136,0,0,1-.613-.388l-.081-.074v-.11a8.34,8.34,0,0,1,.039-.843c.025-.248.051-.491.076-.723l.029-.272.612.122v.2a2.086,2.086,0,0,0,.191.954,1.186,1.186,0,0,0,.478.518,1.327,1.327,0,0,0,.658.168,1.75,1.75,0,0,0,.632-.112.923.923,0,0,0,.429-.331,1.064,1.064,0,0,0,.162-.628.84.84,0,0,0-.183-.543,2.273,2.273,0,0,0-.553-.487c-.245-.158-.508-.317-.781-.472a8.389,8.389,0,0,1-.818-.529,2.742,2.742,0,0,1-.674-.7,1.772,1.772,0,0,1-.279-.992,1.633,1.633,0,0,1,.3-.972,1.924,1.924,0,0,1,.773-.628A2.468,2.468,0,0,1,69.616-14.227Zm1.5.8a3.358,3.358,0,0,0-.328-.117,1.837,1.837,0,0,1,.289.384l.027.049Q71.109-13.268,71.112-13.428ZM71.2-8.089a1.385,1.385,0,0,0,.227-.825,1.323,1.323,0,0,0-.2-.743,2.084,2.084,0,0,0-.548-.564,7.176,7.176,0,0,0-.766-.473c-.282-.151-.554-.307-.807-.464a2.664,2.664,0,0,1-.676-.583,1.348,1.348,0,0,1-.293-.869,1.468,1.468,0,0,1,.084-.5l-.015.021a1.128,1.128,0,0,0-.2.681,1.265,1.265,0,0,0,.2.718,2.243,2.243,0,0,0,.552.572,7.885,7.885,0,0,0,.769.5c.281.16.552.324.805.487a2.769,2.769,0,0,1,.673.6,1.339,1.339,0,0,1,.292.854A1.83,1.83,0,0,1,71.2-8.089ZM68.238-7.7a1.918,1.918,0,0,1-.248-.37q0,.1,0,.207A1.62,1.62,0,0,0,68.238-7.7Zm-18.25-6.435a1.4,1.4,0,0,1,1.021.39,1.281,1.281,0,0,1,.4.943,1.676,1.676,0,0,1-.166.714,1.43,1.43,0,0,1-.583.617,1.48,1.48,0,0,1-.148.077,3.624,3.624,0,0,0,.751.071,1.318,1.318,0,0,0,.591-.121,3.485,3.485,0,0,0,.461-.27,1.037,1.037,0,0,1,.582-.246.42.42,0,0,1,.39.193.565.565,0,0,1,.078.295.568.568,0,0,1-.311.5,2.129,2.129,0,0,1-.528.217,4.621,4.621,0,0,1-.573.12l-.219.029A5.75,5.75,0,0,1,51.585-9.5a4.75,4.75,0,0,1-.294.862c.162.122.35.25.56.383a6.013,6.013,0,0,0,.876.456,2.208,2.208,0,0,0,.793.19l.207,0,.1.609H52.07L52.043-7a2.888,2.888,0,0,1-.71-.29,5.776,5.776,0,0,1-.669-.427,2.62,2.62,0,0,1-.888.586,3.315,3.315,0,0,1-1.222.231,2.424,2.424,0,0,1-1.73-.591,2.106,2.106,0,0,1-.629-1.6,1.986,1.986,0,0,1,.314-1.074A3.123,3.123,0,0,1,47.292-11a4.351,4.351,0,0,1,.831-.487q-.01-.074-.019-.15a3.452,3.452,0,0,1-.021-.379,2.383,2.383,0,0,1,.235-1.066,1.938,1.938,0,0,1,.665-.767A1.774,1.774,0,0,1,49.988-14.132Zm-.532,2.347a.767.767,0,0,0,.433-.121.9.9,0,0,0,.306-.336.953.953,0,0,0,.113-.461,1.22,1.22,0,0,0-.13-.6.257.257,0,0,0-.247-.161c-.059,0-.238,0-.431.324A2.262,2.262,0,0,0,49.269-12a1.755,1.755,0,0,0,.015.216Zm1.253-.38a.776.776,0,0,0,.079-.132,1.181,1.181,0,0,0,.119-.5.779.779,0,0,0-.2-.531,1.882,1.882,0,0,1,.1.626A1.477,1.477,0,0,1,50.709-12.166Zm-1.914.5A2.351,2.351,0,0,1,48.769-12a3.123,3.123,0,0,1,.177-1.136,1.561,1.561,0,0,0-.178.283,1.888,1.888,0,0,0-.183.844,2.946,2.946,0,0,0,.017.324c.012.108.027.215.045.317l.014.081.011.047a4.1,4.1,0,0,0,.421,1.07,5.751,5.751,0,0,0,.674.951,8.075,8.075,0,0,0,.792.792l.056.049.171.133a5.637,5.637,0,0,0,.782.519,2.586,2.586,0,0,0,.557.236h.06a6.521,6.521,0,0,1-.6-.337,7.96,7.96,0,0,1-.765-.54l-.032-.026-.005.012-.261-.245a6.088,6.088,0,0,1-1.03-1.234,5.085,5.085,0,0,1-.554-1.19,4.731,4.731,0,0,1-.123-.5l-.2-.1Zm3.813.356a1.313,1.313,0,0,0,.186-.091.218.218,0,0,0,.06-.049A.968.968,0,0,0,52.608-11.308Zm-1.8.689A2.879,2.879,0,0,1,50-10.844a3.915,3.915,0,0,1-.572-.32,4.648,4.648,0,0,0,.492,1.041,5.225,5.225,0,0,0,.675.862,4.359,4.359,0,0,0,.134-.556A6.589,6.589,0,0,0,50.813-10.619Zm-.756,2.413a8.818,8.818,0,0,1-.667-.685,6.252,6.252,0,0,1-.732-1.034,4.6,4.6,0,0,1-.379-.865,2,2,0,0,0-.826,1.715,1.57,1.57,0,0,0,.176.783,1.142,1.142,0,0,0,.453.455,1.255,1.255,0,0,0,.612.155,2.2,2.2,0,0,0,.883-.164A1.333,1.333,0,0,0,50.058-8.206Zm-2.477.629a1.716,1.716,0,0,1-.384-.467,2.058,2.058,0,0,1-.242-1.031,2.76,2.76,0,0,1,.232-1.152,2.459,2.459,0,0,0-.255.336,1.473,1.473,0,0,0-.237.807,1.606,1.606,0,0,0,.473,1.234A1.464,1.464,0,0,0,47.58-7.577Zm-34.869-5.6v1.192H13.88v.709H12.711v3.37a.272.272,0,0,0,.037.163.058.058,0,0,0,.055.024,1.184,1.184,0,0,0,.314-.043,3.857,3.857,0,0,0,.4-.138l.284-.114.1.57-.141.09a3.9,3.9,0,0,1-.6.315,1.837,1.837,0,0,1-.714.143.948.948,0,0,1-.651-.215.962.962,0,0,1-.255-.757v-3.408h-.57v-.709h.25a.705.705,0,0,0,.425-.1.663.663,0,0,0,.214-.31,3.512,3.512,0,0,0,.142-.532l.035-.186Zm-.5,1.692v-.489a1.118,1.118,0,0,1-.165.2v3.9c0,.284.067.365.087.383a.418.418,0,0,0,.253.087l-.022-.025a.733.733,0,0,1-.153-.483Zm67.516-1.692v1.192H80.9v.709H79.727v3.37a.272.272,0,0,0,.037.163.058.058,0,0,0,.055.024,1.184,1.184,0,0,0,.314-.043,3.857,3.857,0,0,0,.4-.138l.284-.114.1.57-.141.09a3.9,3.9,0,0,1-.6.315,1.837,1.837,0,0,1-.714.143.948.948,0,0,1-.651-.215.962.962,0,0,1-.255-.757v-3.408h-.57v-.709h.25a.705.705,0,0,0,.425-.1.663.663,0,0,0,.214-.31,3.516,3.516,0,0,0,.142-.532l.035-.186Zm-.5,1.692v-.489a1.118,1.118,0,0,1-.165.2v3.9c0,.284.067.365.087.383A.418.418,0,0,0,79.4-7.4l-.022-.025a.733.733,0,0,1-.153-.483Zm-76.608-.6a2.359,2.359,0,0,1,1.31.359,2.354,2.354,0,0,1,.839.95,2.9,2.9,0,0,1,.287,1.288,2.957,2.957,0,0,1-.276,1.275,2.322,2.322,0,0,1-.814.951A2.271,2.271,0,0,1,2.676-6.9a2.324,2.324,0,0,1-1.291-.359,2.354,2.354,0,0,1-.839-.95A2.874,2.874,0,0,1,.26-9.484a3.024,3.024,0,0,1,.27-1.283,2.288,2.288,0,0,1,.81-.953A2.254,2.254,0,0,1,2.619-12.08Zm.057,4.494A.881.881,0,0,0,3.3-7.81,1.464,1.464,0,0,0,3.7-8.478a3.5,3.5,0,0,0,.137-1.006,3.224,3.224,0,0,0-.149-1.009,1.525,1.525,0,0,0-.414-.671.915.915,0,0,0-.641-.226.868.868,0,0,0-.619.223,1.464,1.464,0,0,0-.391.667,3.535,3.535,0,0,0-.137,1.016,3.192,3.192,0,0,0,.149,1,1.525,1.525,0,0,0,.414.671A.9.9,0,0,0,2.676-7.587Zm-1.37-.382a2.388,2.388,0,0,1-.15-.358A3.689,3.689,0,0,1,.982-9.484a4.032,4.032,0,0,1,.158-1.16,2.319,2.319,0,0,1,.15-.38,1.831,1.831,0,0,0-.306.467A2.529,2.529,0,0,0,.76-9.484,2.379,2.379,0,0,0,1-8.425,1.887,1.887,0,0,0,1.307-7.969Zm2.728-.007a1.88,1.88,0,0,0,.292-.447,2.462,2.462,0,0,0,.228-1.062,2.4,2.4,0,0,0-.236-1.068,1.887,1.887,0,0,0-.311-.457,2.389,2.389,0,0,1,.15.358,3.721,3.721,0,0,1,.174,1.166,4,4,0,0,1-.158,1.15A2.335,2.335,0,0,1,4.035-7.975ZM21.791-12.08a1.961,1.961,0,0,1,1.172.342,2.08,2.08,0,0,1,.7.894,3.063,3.063,0,0,1,.229,1.2v.25H20.778a2.487,2.487,0,0,0,.185.976,1.288,1.288,0,0,0,.458.568,1.08,1.08,0,0,0,.6.179,1.566,1.566,0,0,0,.668-.152,1.039,1.039,0,0,0,.479-.476l.118-.22.579.309-.111.219a1.847,1.847,0,0,1-.82.852,2.361,2.361,0,0,1-1.056.244,2.316,2.316,0,0,1-1.128-.292,2.227,2.227,0,0,1-.867-.88,2.855,2.855,0,0,1-.327-1.415,3.119,3.119,0,0,1,.259-1.28,2.313,2.313,0,0,1,.761-.951A2.032,2.032,0,0,1,21.791-12.08Zm.854,1.91a2.314,2.314,0,0,0-.238-.88.626.626,0,0,0-.607-.34.727.727,0,0,0-.671.375,2.355,2.355,0,0,0-.3.845Zm.738.276a2.444,2.444,0,0,0-.179-.755,1.668,1.668,0,0,0-.258-.428,3.415,3.415,0,0,1,.216,1.148V-9.9Zm-3.09,0,0-.048a3.266,3.266,0,0,1,.281-1.1,1.922,1.922,0,0,0-.308.486,2.623,2.623,0,0,0-.216,1.076,2.367,2.367,0,0,0,.262,1.169,1.793,1.793,0,0,0,.467.554,2.076,2.076,0,0,1-.276-.45,3.072,3.072,0,0,1-.232-1.273v-.187h0l0-.052V-9.9ZM88.787-12.08a1.961,1.961,0,0,1,1.279.422A1.648,1.648,0,0,1,90.6-10.31v.96c0,.442.008.789.023,1.029a1.036,1.036,0,0,0,.076.408c.012.02.014.023.04.023a.346.346,0,0,0,.133-.024c.064-.026.125-.054.182-.082l.224-.112.261.522-.383.239a3.2,3.2,0,0,1-.562.264,2.3,2.3,0,0,1-.815.14h-.2l-.042-.2a3.716,3.716,0,0,1-.054-.375,1.786,1.786,0,0,1-.407.378,1.577,1.577,0,0,1-.9.243A1.566,1.566,0,0,1,87.1-7.274a1.355,1.355,0,0,1-.435-1.061A1.5,1.5,0,0,1,87-9.293a2.039,2.039,0,0,1,1-.624,5.28,5.28,0,0,1,1.441-.2v-.1a3.111,3.111,0,0,0-.065-.672.66.66,0,0,0-.2-.366.641.641,0,0,0-.428-.118.533.533,0,0,0-.281.059.551.551,0,0,0-.168.167,2.108,2.108,0,0,0-.14.259,1.2,1.2,0,0,1-.2.312.567.567,0,0,1-.437.182.532.532,0,0,1-.573-.573.837.837,0,0,1,.318-.658,1.858,1.858,0,0,1,.685-.343A3.034,3.034,0,0,1,88.787-12.08Zm-1.264,1.188c.051,0,.062-.013.066-.017a.7.7,0,0,0,.114-.182,2.608,2.608,0,0,1,.171-.317,1.157,1.157,0,0,0-.287.17.335.335,0,0,0-.138.273.2.2,0,0,0,.008.065A.2.2,0,0,0,87.524-10.893Zm2.849,3.359a.574.574,0,0,1-.1-.129,1.46,1.46,0,0,1-.143-.627c-.016-.251-.024-.608-.024-1.061v-.96a1.2,1.2,0,0,0-.32-.931,1.387,1.387,0,0,1,.078.245,3.608,3.608,0,0,1,.077.781v.307h.008l-.008.285a4.65,4.65,0,0,1-.089.725,3.619,3.619,0,0,1-.1.4l.193.031c0,.252.009.494.028.721.009.111.019.208.029.292A1.718,1.718,0,0,0,90.373-7.534Zm-2.041-.158A.686.686,0,0,0,88.8-7.85a1.357,1.357,0,0,0,.348-.474A3.014,3.014,0,0,0,89.359-9c.027-.139.048-.273.062-.4a2.635,2.635,0,0,0-.836.17,1.162,1.162,0,0,0-.539.4.934.934,0,0,0-.159.528.8.8,0,0,0,.128.463A.336.336,0,0,0,88.331-7.691Zm-.7.179-.029-.04a1.3,1.3,0,0,1-.214-.744,1.439,1.439,0,0,1,.24-.8,1.276,1.276,0,0,1,.155-.192,1.208,1.208,0,0,0-.4.309,1,1,0,0,0-.221.647.866.866,0,0,0,.268.687A.914.914,0,0,0,87.631-7.512Zm8.9-4.473h2.946l-.1.614h-.212c-.241,0-.3.046-.3.047s-.039.035-.039.131a2.1,2.1,0,0,0,.112.582c.08.259.187.556.317.884l.476,1.2.527-1.621a4.571,4.571,0,0,0,.167-.607,2.144,2.144,0,0,0,.039-.351.251.251,0,0,0-.069-.194c-.012-.012-.083-.069-.346-.069h-.212l-.1-.614h2.376l-.1.614h-.212a.668.668,0,0,0-.233.031c-.007,0-.047.022-.1.116a2.982,2.982,0,0,0-.216.492c-.087.24-.2.575-.339.995l-.855,2.6A6.5,6.5,0,0,1,99.024-5.08a1.786,1.786,0,0,1-1.363.786,1.163,1.163,0,0,1-.567-.135.587.587,0,0,1-.32-.533A.607.607,0,0,1,97-5.468a.645.645,0,0,1,.4-.152.856.856,0,0,1,.441.1.3.3,0,0,0,.148.027.755.755,0,0,0,.622-.3,4.316,4.316,0,0,0,.552-1L97.78-10.275a3.949,3.949,0,0,0-.389-.792.669.669,0,0,0-.259-.25.771.771,0,0,0-.288-.054h-.212Zm1.848.5H97.7q.049.058.1.127a4.333,4.333,0,0,1,.447.9l1.293,3.264.032-.1.05-.153-.833-2.1c-.135-.34-.246-.65-.329-.921a2.532,2.532,0,0,1-.135-.729A.742.742,0,0,1,98.378-11.485Zm2.651,0h-.158a.744.744,0,0,1,.066.173A1.892,1.892,0,0,1,101.029-11.485ZM97.984-5a.783.783,0,0,1-.4-.1.406.406,0,0,0-.186-.027s-.029,0-.089.047c-.021.016-.032.054-.032.111a.091.091,0,0,0,.06.094.671.671,0,0,0,.326.074,1,1,0,0,0,.6-.23A1.415,1.415,0,0,1,97.984-5Z" transform="translate(92.372 237.994)" fill="#9b804e"/>
  </g>
</svg>
